<svg xmlns="http://www.w3.org/2000/svg" viewBox="0 0 256 256" role="img" aria-label="Game Release Tracker icon">
  <defs>
    <linearGradient id="bg" x1="36" y1="28" x2="220" y2="232" gradientUnits="userSpaceOnUse">
      <stop offset="0" stop-color="#4bdcf0"/>
      <stop offset="0.52" stop-color="#15bfc7"/>
      <stop offset="1" stop-color="#7b4dff"/>
    </linearGradient>
    <linearGradient id="panel" x1="56" y1="62" x2="199" y2="205" gradientUnits="userSpaceOnUse">
      <stop offset="0" stop-color="#ffffff"/>
      <stop offset="1" stop-color="#dff9ff"/>
    </linearGradient>
  </defs>
  <rect width="256" height="256" rx="56" fill="#06131c"/>
  <rect x="18" y="18" width="220" height="220" rx="48" fill="url(#bg)"/>
  <rect x="51" y="58" width="154" height="148" rx="28" fill="#06131c" opacity="0.24"/>
  <rect x="49" y="54" width="154" height="148" rx="28" fill="url(#panel)"/>
  <rect x="49" y="54" width="154" height="46" rx="28" fill="#0d2431"/>
  <rect x="49" y="78" width="154" height="28" fill="#0d2431"/>
  <rect x="76" y="35" width="20" height="42" rx="10" fill="#dff9ff"/>
  <rect x="160" y="35" width="20" height="42" rx="10" fill="#dff9ff"/>
  <circle cx="88" cy="126" r="12" fill="#14c7cf"/>
  <circle cx="128" cy="126" r="12" fill="#14c7cf"/>
  <circle cx="168" cy="126" r="12" fill="#14c7cf"/>
  <path d="M77 168l28 28 72-78" fill="none" stroke="#111827" stroke-width="18" stroke-linecap="round" stroke-linejoin="round"/>
  <path d="M77 168l28 28 72-78" fill="none" stroke="#4bdcf0" stroke-width="10" stroke-linecap="round" stroke-linejoin="round"/>
</svg>
